<svg version="1.1" id="Layer_1" xmlns="http://www.w3.org/2000/svg" x="0px" y="0px"
  viewBox="0 0 1417.32 471.59" style="enable-background: new 0 0 1417.32 471.59">
  <style type="text/css">
    .st0 {fill: #0080FF;}
    .st1 {fill: url(#SVGID_1_);}
    .st2 {fill: url(#SVGID_00000111891436783332142660000004199619987937059238_);}
    .st3 {fill: url(#SVGID_00000013894434565317474680000013997411381039701378_);}
    .text {fill: #000;}
  </style>
  <g>
    <g>
      <rect x="6.86" class="st0" width="940.31" height="117.54"/>
      <rect x="6.86" y="94.03" class="st0" width="117.54" height="23.51"/>
      <linearGradient id="SVGID_1_" gradientUnits="userSpaceOnUse" x1="241.9369" y1="58.7693" x2="1182.2456" y2="58.7693">
        <stop  offset="0" style="stop-color:#2C46FF"/>
        <stop  offset="1" style="stop-color:#2C46FF; stop-opacity:0"/>
      </linearGradient>
      <rect x="241.94" class="st1" width="940.31" height="117.54"/>
      
        <linearGradient id="SVGID_00000058551136941057078450000011146627805975315094_" gradientUnits="userSpaceOnUse" x1="594.5527" y1="58.7693" x2="1299.7843" y2="58.7693">
        <stop  offset="0" style="stop-color:#2C46FF"/>
        <stop  offset="1" style="stop-color:#2C46FF; stop-opacity:0"/>
      </linearGradient>
      
        <rect x="594.55" style="fill: url(#SVGID_00000058551136941057078450000011146627805975315094_)" width="705.23" height="117.54"/>
      
        <linearGradient id="SVGID_00000144319456893316150280000000036464168461056649_" gradientUnits="userSpaceOnUse" x1="947.1685" y1="58.7693" x2="1417.3229" y2="58.7693">
        <stop  offset="0" style="stop-color:#2C46FF "/>
        <stop  offset="0.1471" style="stop-color:#2C46FF; stop-opacity: 0.8529"/>
        <stop  offset="1" style="stop-color:#2C46FF; stop-opacity: 0"/>
      </linearGradient>
    
        <rect x="947.17" style="fill: url(#SVGID_00000144319456893316150280000000036464168461056649_)" width="470.15" height="117.54"/>
    </g>
    <g class="text">
      <path d="M4.97,239.38h27.2v232.2H4.97V239.38z M57.55,400.93c-12.27-7.74-21.84-18.35-28.69-31.84
        C22,355.6,18.57,340.56,18.57,323.97s3.43-31.62,10.28-45.11c6.85-13.49,16.42-24.1,28.69-31.85
        c12.27-7.74,26.04-11.61,41.3-11.61c15.92,0,30.35,3.87,43.29,11.61c12.94,7.74,23.11,18.36,30.52,31.85
        c7.41,13.49,11.11,28.53,11.11,45.11s-3.71,31.63-11.11,45.11c-7.41,13.49-17.58,24.11-30.52,31.84s-27.37,11.61-43.29,11.61
        C83.59,412.54,69.82,408.67,57.55,400.93z M125.22,377.87c9.4-5.42,16.8-12.82,22.23-22.22c5.42-9.4,8.13-19.96,8.13-31.68
        c0-11.5-2.71-22-8.13-31.51c-5.42-9.51-12.77-16.97-22.06-22.39c-9.29-5.42-19.79-8.13-31.51-8.13c-11.5,0-21.95,2.71-31.35,8.13
        c-9.4,5.42-16.81,12.83-22.23,22.23c-5.42,9.4-8.13,19.96-8.13,31.68c0,11.5,2.71,22.01,8.13,31.51
        c5.42,9.51,12.77,16.97,22.06,22.39c9.29,5.42,19.79,8.13,31.51,8.13C105.37,386,115.82,383.3,125.22,377.87z"/>
      <path d="M238.67,405.08c-9.18-4.98-16.48-11.66-21.89-20.07c-5.42-8.4-8.13-17.91-8.13-28.53s2.65-20.18,7.96-28.69
        c5.31-8.51,12.61-15.2,21.89-20.07c9.29-4.86,19.68-7.3,31.18-7.3h54.73v24.55h-51.75c-6.63,0-12.72,1.38-18.24,4.15
        c-5.53,2.77-9.84,6.53-12.94,11.28c-3.1,4.76-4.64,10.12-4.64,16.09s1.54,11.34,4.64,16.09c3.09,4.76,7.41,8.52,12.94,11.28
        c5.53,2.77,11.61,4.15,18.24,4.15c9.51,0,17.86-1.49,25.04-4.48c7.18-2.99,12.82-7.08,16.92-12.27
        c4.09-5.19,6.14-11.22,6.14-18.08l11.94,2.65c0,10.84-2.77,20.57-8.29,29.19c-5.53,8.62-13.05,15.37-22.56,20.23
        c-9.51,4.86-20.23,7.3-32.18,7.3C258.18,412.54,247.84,410.05,238.67,405.08z M323.42,378.37l-2.65-5.31V260.61l5.31,4.98H219.92
        v-26.21h128.04v149.27l-4.31-4.98h26.87v24.88h-47.1V378.37z"/>
      <path d="M432.56,400.93c-13.71-7.74-24.5-18.35-32.34-31.84c-7.85-13.49-11.78-28.53-11.78-45.11s3.92-31.62,11.78-45.11
        c7.85-13.49,18.63-24.1,32.34-31.85c13.71-7.74,28.97-11.61,45.78-11.61c14.37,0,27.64,2.82,39.81,8.46
        c12.16,5.64,22.39,13.55,30.68,23.72c8.29,10.17,13.88,21.68,16.75,34.5h-28.86c-4.43-12.16-11.83-21.89-22.23-29.19
        c-10.4-7.3-22.45-10.95-36.16-10.95c-11.5,0-21.95,2.71-31.35,8.13c-9.4,5.42-16.81,12.89-22.23,22.39
        c-5.42,9.51-8.13,20.02-8.13,31.51c0,11.5,2.71,22.01,8.13,31.51c5.42,9.51,12.82,16.97,22.23,22.39
        c9.4,5.42,19.85,8.13,31.35,8.13c13.71,0,25.76-3.65,36.16-10.95c10.39-7.3,17.8-17.03,22.23-29.19h28.86
        c-2.88,12.83-8.46,24.33-16.75,34.5c-8.29,10.17-18.52,18.08-30.68,23.72c-12.17,5.64-25.43,8.46-39.81,8.46
        C461.52,412.54,446.26,408.67,432.56,400.93z"/>
      <path d="M602.73,169.72h27.2v238.84h-27.2V169.72z M643.53,325.3l18.58,10.62h-46.11V310.7h45.78l-17.91,10.95l64.69-82.27h33.17
        l-75.63,94.21v-20.57l77.95,95.54H710.2L643.53,325.3z"/>
      <path d="M793.47,400.93c-13.71-7.74-24.5-18.35-32.34-31.84c-7.85-13.49-11.78-28.53-11.78-45.11s3.92-31.62,11.78-45.11
        c7.85-13.49,18.63-24.1,32.34-31.85c13.71-7.74,28.97-11.61,45.78-11.61c16.8,0,32.06,3.87,45.78,11.61
        c13.71,7.74,24.49,18.36,32.34,31.85c7.85,13.49,11.78,28.53,11.78,45.11c0,4.43-0.33,8.29-1,11.61H772.9V310.7h133.68
        l-5.64,13.27v-2.65c-0.45-11.5-3.37-21.84-8.79-31.02c-5.42-9.17-12.77-16.42-22.06-21.73c-9.29-5.31-19.57-7.96-30.85-7.96
        c-11.72,0-22.28,2.77-31.68,8.29c-9.4,5.53-16.75,13.1-22.06,22.72c-5.31,9.62-7.96,20.4-7.96,32.34
        c0,11.94,2.71,22.72,8.13,32.34c5.42,9.62,12.82,17.2,22.23,22.72c9.4,5.53,19.85,8.29,31.35,8.29c12.82,0,24.27-2.99,34.33-8.96
        c10.06-5.97,17.42-13.93,22.06-23.88h29.86c-6.19,17.47-17.03,31.51-32.51,42.13c-15.48,10.62-33.39,15.92-53.74,15.92
        C822.43,412.54,807.17,408.67,793.47,400.93z"/>
      <path d="M941.08,239.38h108.14v24.88H941.08V239.38z M974.25,189.62h27.53v206.66l-12.27-12.94h59.71v25.21h-74.97V189.62z"/>
      <path d="M1090.02,286.65c-3.98-3.87-5.97-8.68-5.97-14.43c0-5.97,1.99-10.89,5.97-14.76c3.98-3.87,8.84-5.8,14.6-5.8
        c5.97,0,10.95,1.94,14.93,5.8c3.98,3.87,5.97,8.79,5.97,14.76c0,5.75-1.99,10.56-5.97,14.43c-3.98,3.87-8.85,5.81-14.6,5.81
        C1098.98,292.46,1094,290.52,1090.02,286.65z M1090.02,405.08c-3.98-3.87-5.97-8.79-5.97-14.76c0-5.97,1.99-10.89,5.97-14.76
        c3.98-3.87,8.84-5.81,14.6-5.81c5.97,0,10.95,1.94,14.93,5.81c3.98,3.87,5.97,8.79,5.97,14.76c0,5.97-1.99,10.89-5.97,14.76
        c-3.98,3.87-8.85,5.81-14.6,5.81C1098.98,410.88,1094,408.94,1090.02,405.08z"/>
      <path d="M1169.97,199.24c-3.54-3.53-5.31-7.85-5.31-12.94c0-5.08,1.77-9.4,5.31-12.94c3.54-3.54,7.96-5.31,13.27-5.31
        s9.67,1.77,13.1,5.31c3.43,3.54,5.14,7.85,5.14,12.94c0,5.09-1.72,9.4-5.14,12.94c-3.43,3.54-7.8,5.31-13.1,5.31
        S1173.5,202.78,1169.97,199.24z M1169.63,239.38h27.2v169.18h-27.2V239.38z"/>
      <path d="M1297.67,321.98v3.32l-66.01-85.92h33.5l55.4,72.98h-10.28l55.07-72.98h33.17l-66.01,85.92v-3.32l67.01,86.58h-33.17
        l-56.39-73.64h10.28l-56.06,73.64h-33.5L1297.67,321.98z"/>
    </g>
  </g>
</svg>